<svg width="102" height="21" viewBox="0 0 102 21" fill="none" xmlns="http://www.w3.org/2000/svg">
<path d="M0.0486016 6.23L2.5326 5.906L2.6676 8.336C3.0096 7.472 3.5316 6.815 4.2336 6.365C4.9536 5.915 5.7906 5.69 6.7446 5.69C7.8066 5.69 8.6346 5.906 9.2286 6.338C9.8226 6.752 10.2456 7.373 10.4976 8.201C11.1996 6.527 12.4776 5.69 14.3316 5.69C15.8436 5.69 16.8966 6.113 17.4906 6.959C18.0846 7.787 18.3816 9.056 18.3816 10.766V17.786C18.3816 18.668 18.6606 19.262 19.2186 19.568C19.0746 19.838 18.8406 20.045 18.5166 20.189C18.1926 20.333 17.8506 20.405 17.4906 20.405C16.7886 20.405 16.2666 20.207 15.9246 19.811C15.5826 19.415 15.4116 18.857 15.4116 18.137V11.144C15.4116 10.01 15.2856 9.164 15.0336 8.606C14.7816 8.048 14.2236 7.769 13.3596 7.769C12.3336 7.769 11.6496 8.255 11.3076 9.227C10.9656 10.199 10.7946 11.45 10.7946 12.98V20H7.8246V11.144C7.8246 10.01 7.6986 9.164 7.4466 8.606C7.1946 8.048 6.6366 7.769 5.7726 7.769C4.6746 7.769 3.9366 8.255 3.5586 9.227C3.1986 10.199 3.0186 11.45 3.0186 12.98V20H0.0486016V6.23ZM29.1976 18.758C28.8556 19.388 28.3516 19.847 27.6856 20.135C27.0376 20.441 26.2996 20.594 25.4716 20.594C24.2296 20.594 23.1856 20.216 22.3396 19.46C21.5116 18.704 21.0976 17.723 21.0976 16.517C21.0976 13.601 23.6986 12.143 28.9006 12.143V9.794C28.9006 8.894 28.7656 8.228 28.4956 7.796C28.2256 7.346 27.7126 7.121 26.9566 7.121C26.3266 7.121 25.8046 7.292 25.3906 7.634C24.9766 7.958 24.7696 8.417 24.7696 9.011C24.7696 9.389 24.8416 9.794 24.9856 10.226C24.7336 10.424 24.3736 10.523 23.9056 10.523C23.2576 10.523 22.7446 10.361 22.3666 10.037C21.9886 9.713 21.7996 9.245 21.7996 8.633C21.7996 7.769 22.2856 7.067 23.2576 6.527C24.2296 5.969 25.5256 5.69 27.1456 5.69C28.3336 5.69 29.2696 5.87 29.9536 6.23C30.6376 6.572 31.1236 7.112 31.4116 7.85C31.7176 8.57 31.8706 9.542 31.8706 10.766V17.786C31.8706 18.668 32.1496 19.262 32.7076 19.568C32.5636 19.838 32.3476 20.045 32.0596 20.189C31.7896 20.333 31.4746 20.405 31.1146 20.405C30.5926 20.405 30.1606 20.261 29.8186 19.973C29.4766 19.667 29.2696 19.262 29.1976 18.758ZM26.5246 18.785C27.3166 18.785 27.9106 18.488 28.3066 17.894C28.7026 17.282 28.9006 16.526 28.9006 15.626V13.493C25.8586 13.493 24.3376 14.465 24.3376 16.409C24.3376 17.129 24.5266 17.705 24.9046 18.137C25.3006 18.569 25.8406 18.785 26.5246 18.785ZM33.7336 7.445L33.7066 6.635C34.5166 6.311 35.2816 5.879 36.0016 5.339C36.7396 4.799 37.3606 4.205 37.8646 3.557H38.7016V6.23H41.1856V7.445H38.6476V17.273C38.6476 17.813 38.7466 18.218 38.9446 18.488C39.1426 18.758 39.4576 18.929 39.8896 19.001C39.7996 19.415 39.5566 19.748 39.1606 20C38.7826 20.27 38.3416 20.405 37.8376 20.405C36.3796 20.405 35.6506 19.577 35.6506 17.921V7.445H33.7336ZM47.9939 7.283C46.1939 7.283 45.2939 9.245 45.2939 13.169C45.2939 14.771 45.4919 16.067 45.8879 17.057C46.3019 18.029 47.0939 18.515 48.2639 18.515C49.0559 18.515 49.7309 18.308 50.2889 17.894C50.8649 17.462 51.2519 16.859 51.4499 16.085C51.7559 16.229 51.9719 16.4 52.0979 16.598C52.2419 16.778 52.3139 17.03 52.3139 17.354C52.3139 18.002 52.0979 18.578 51.6659 19.082C51.2519 19.568 50.7119 19.937 50.0459 20.189C49.3799 20.459 48.6959 20.594 47.9939 20.594C46.0139 20.594 44.5469 19.955 43.5929 18.677C42.6389 17.381 42.1619 15.644 42.1619 13.466C42.1619 11.144 42.6749 9.272 43.7009 7.85C44.7449 6.41 46.3109 5.69 48.3989 5.69C49.6229 5.69 50.6309 5.942 51.4229 6.446C52.2149 6.95 52.6109 7.724 52.6109 8.768C52.6109 9.38 52.4219 9.848 52.0439 10.172C51.6659 10.496 51.1529 10.658 50.5049 10.658C50.3069 10.658 50.0999 10.631 49.8839 10.577C49.6859 10.523 49.5239 10.451 49.3979 10.361C49.5419 9.929 49.6139 9.524 49.6139 9.146C49.6139 7.904 49.0739 7.283 47.9939 7.283ZM58.2077 3.827C58.2077 5.789 58.1177 7.229 57.9377 8.147C58.3157 7.337 58.8467 6.725 59.5307 6.311C60.2147 5.897 61.0157 5.69 61.9337 5.69C63.4457 5.69 64.4987 6.113 65.0927 6.959C65.6867 7.787 65.9837 9.056 65.9837 10.766V17.786C65.9837 18.668 66.2627 19.262 66.8207 19.568C66.6767 19.838 66.4427 20.045 66.1187 20.189C65.7947 20.333 65.4527 20.405 65.0927 20.405C64.3907 20.405 63.8687 20.207 63.5267 19.811C63.1847 19.415 63.0137 18.857 63.0137 18.137V11.144C63.0137 10.01 62.8877 9.164 62.6357 8.606C62.3837 8.048 61.8257 7.769 60.9617 7.769C59.8637 7.769 59.1257 8.255 58.7477 9.227C58.3877 10.199 58.2077 11.45 58.2077 12.98V20H55.2377V1.1L58.2077 0.776V3.827ZM78.1938 16.193C78.6078 16.391 78.8148 16.778 78.8148 17.354C78.8148 18.002 78.5988 18.578 78.1668 19.082C77.7348 19.568 77.1768 19.937 76.4928 20.189C75.8088 20.459 75.1158 20.594 74.4138 20.594C72.4338 20.594 70.9668 19.955 70.0128 18.677C69.0588 17.381 68.5818 15.644 68.5818 13.466C68.5818 11.144 69.0948 9.272 70.1208 7.85C71.1648 6.41 72.7398 5.69 74.8458 5.69C76.1778 5.69 77.2488 6.041 78.0588 6.743C78.8688 7.427 79.2738 8.399 79.2738 9.659C79.2738 11.225 78.7248 12.323 77.6268 12.953C76.5468 13.583 75.0708 13.898 73.1988 13.898C72.6768 13.898 72.1818 13.88 71.7138 13.844C71.7678 15.266 72.0018 16.4 72.4158 17.246C72.8478 18.092 73.6038 18.515 74.6838 18.515C75.4758 18.515 76.1688 18.317 76.7628 17.921C77.3748 17.507 77.8518 16.931 78.1938 16.193ZM74.4138 7.229C73.4418 7.229 72.7578 7.742 72.3618 8.768C71.9658 9.776 71.7498 11.018 71.7138 12.494C72.2538 12.53 72.6498 12.548 72.9018 12.548C75.1698 12.548 76.3038 11.639 76.3038 9.821C76.3038 9.083 76.1418 8.471 75.8178 7.985C75.5118 7.481 75.0438 7.229 74.4138 7.229ZM86.672 7.769C85.898 7.769 85.394 8.291 85.16 9.335C84.944 10.361 84.836 11.594 84.836 13.034V20H81.866V6.23L84.35 5.906L84.485 8.336C84.737 7.526 85.178 6.887 85.808 6.419C86.438 5.933 87.167 5.69 87.995 5.69C88.895 5.69 89.606 5.951 90.128 6.473C90.668 6.995 90.938 7.706 90.938 8.606C90.938 10.064 90.236 10.793 88.832 10.793C88.364 10.793 88.004 10.694 87.752 10.496C87.878 10.028 87.941 9.623 87.941 9.281C87.941 8.273 87.518 7.769 86.672 7.769ZM96.8923 7.121C96.3523 7.121 95.9203 7.265 95.5963 7.553C95.2723 7.823 95.1103 8.219 95.1103 8.741C95.1103 9.443 95.3443 10.019 95.8123 10.469C96.2983 10.901 97.0363 11.387 98.0263 11.927C98.8183 12.359 99.4483 12.746 99.9163 13.088C100.402 13.43 100.816 13.871 101.158 14.411C101.5 14.933 101.671 15.572 101.671 16.328C101.671 17.696 101.176 18.749 100.186 19.487C99.2143 20.225 97.9723 20.594 96.4603 20.594C95.1463 20.594 94.0393 20.369 93.1393 19.919C92.2573 19.469 91.8163 18.722 91.8163 17.678C91.8163 17.066 92.0053 16.598 92.3833 16.274C92.7613 15.95 93.2743 15.788 93.9223 15.788C94.3903 15.788 94.7503 15.887 95.0023 16.085C94.8583 16.517 94.7863 16.922 94.7863 17.3C94.7863 17.876 94.9663 18.335 95.3263 18.677C95.6863 19.001 96.1723 19.163 96.7843 19.163C97.4503 19.163 97.9543 18.992 98.2963 18.65C98.6563 18.29 98.8363 17.768 98.8363 17.084C98.8363 16.382 98.5933 15.815 98.1073 15.383C97.6393 14.933 96.9103 14.438 95.9203 13.898C95.1283 13.448 94.4893 13.052 94.0033 12.71C93.5353 12.368 93.1303 11.936 92.7883 11.414C92.4463 10.874 92.2753 10.226 92.2753 9.47C92.2753 8.264 92.7613 7.337 93.7333 6.689C94.7053 6.023 95.8843 5.69 97.2703 5.69C98.5483 5.69 99.5923 5.924 100.402 6.392C101.23 6.842 101.644 7.589 101.644 8.633C101.644 9.245 101.446 9.713 101.05 10.037C100.672 10.361 100.159 10.523 99.5113 10.523C99.0433 10.523 98.6833 10.424 98.4313 10.226C98.5753 9.794 98.6473 9.389 98.6473 9.011C98.6473 8.417 98.4943 7.958 98.1883 7.634C97.9003 7.292 97.4683 7.121 96.8923 7.121Z" fill="#FD97A0"/>
</svg>
